# xmcd
#
# Track frame offsets:
#	182
#	18170
#	35305
#	50947
#	61785
#	75732
#	88965
#	108965
#	119217
#	134037
#	151220
#	170840
#
# Disc length: 2486 seconds
#
# Revision: 3
# Processed by: cddbd v1.5.1PL2 Copyright (c) Steve Scherf et al.
# Submitted via: dBpowerAMP V4.0
#
DISCID=a709b40c
DTITLE=Randy Travis - Full Circle
DYEAR=1996
DGENRE=Country
TTITLE0=Highway Junkie
TTITLE1=Price To Pay
TTITLE2=Long On Lonely (Short On Pride)
TTITLE3=Would I
TTITLE4=Future Mister Me
TTITLE5=Don't Take Your Love Away From Me
TTITLE6=Are We In Trouble Now
TTITLE7=If It Ain't One Thing It's Another
TTITLE8=I Wish It Would Rain
TTITLE9=King Of The Road
TTITLE10=I Can Almost Hear Her Wings
TTITLE11=Ants On A Log
EXTD=
EXTT0=
EXTT1=
EXTT2=
EXTT3=
EXTT4=
EXTT5=
EXTT6=
EXTT7=
EXTT8=
EXTT9=
EXTT10=
EXTT11=
PLAYORDER=
